<svg id="frappe-symbols" aria-hidden="true" style="position: absolute; width: 0; height: 0; overflow: hidden;" class="d-block" xmlns="http://www.w3.org/2000/svg">
    <symbol id="icon-radio" viewBox="0 0 16 16" xmlns="http://www.w3.org/2000/svg">
        <defs><clipPath id="11d6876da7"><path d="M 66.351562 76.921875 L 74.328125 76.921875 L 74.328125 86.371094 L 66.351562 86.371094 Z M 66.351562 76.921875 " clip-rule="nonzero"/></clipPath></defs><g clip-path="url(#11d6876da7)"><path fill="#f00f00" d="M 71.667969 76.976562 C 71.191406 77.082031 70.691406 77.34375 69.882812 77.925781 C 68.949219 78.59375 68.035156 79.296875 67.597656 79.683594 C 67.046875 80.167969 66.746094 80.53125 66.542969 80.953125 C 66.210938 81.640625 66.300781 82.257812 66.824219 82.957031 C 67.144531 83.378906 67.933594 84.132812 68.613281 84.664062 C 69.507812 85.363281 70.917969 86.207031 71.375 86.324219 C 71.574219 86.371094 71.875 86.378906 72.070312 86.335938 C 72.757812 86.191406 73.328125 85.503906 73.554688 84.550781 C 73.722656 83.828125 73.992188 82.351562 74.132812 81.339844 C 74.292969 80.230469 74.328125 79.828125 74.328125 79.167969 L 74.332031 78.546875 L 74.207031 78.296875 C 73.734375 77.34375 72.632812 76.773438 71.667969 76.976562 M 70.769531 79.867188 C 70.4375 79.984375 69.523438 80.636719 69.121094 81.046875 C 68.804688 81.367188 68.722656 81.6875 68.878906 81.996094 C 68.972656 82.183594 69.375 82.589844 69.742188 82.867188 C 70.058594 83.101562 70.523438 83.386719 70.679688 83.441406 C 71.019531 83.558594 71.332031 83.394531 71.507812 83.003906 C 71.640625 82.71875 71.859375 81.414062 71.878906 80.796875 L 71.890625 80.410156 L 71.785156 80.253906 C 71.609375 79.988281 71.320312 79.828125 71.023438 79.832031 C 70.9375 79.832031 70.820312 79.847656 70.769531 79.867188 " fill-opacity="1" fill-rule="evenodd"/></g>
    </symbol>
</svg>