<svg id="frappe-symbols" aria-hidden="true" style="position: absolute; width: 0; height: 0; overflow: hidden;" class="d-block" xmlns="http://www.w3.org/2000/svg">
    <symbol id="icon-tv" viewBox="0 0 16 16" xmlns="http://www.w3.org/2000/svg">
        <defs>
            <clipPath id="3a28ff3cd7">
                <path d="M 217.203125 9 L 241.109375 9 L 241.109375 261 L 217.203125 261 Z M 217.203125 9 " clip-rule="nonzero"/>
            </clipPath>
            <clipPath id="139ce22daa">
                <path d="M 183.261719 9 L 217.011719 9 L 217.011719 261 L 183.261719 261 Z M 183.261719 9 " clip-rule="nonzero"/>
            </clipPath>
            <clipPath id="c7c871e298">
                <path d="M 149.578125 9 L 183.328125 9 L 183.328125 261 L 149.578125 261 Z M 149.578125 9 " clip-rule="nonzero"/>
            </clipPath>
            <clipPath id="3c0b2e1214">
                <path d="M 118.828125 9 L 152.578125 9 L 152.578125 261 L 118.828125 261 Z M 118.828125 9 " clip-rule="nonzero"/>
            </clipPath>
            <clipPath id="905f38b23a">
                <path d="M 89.152344 9 L 122.902344 9 L 122.902344 261 L 89.152344 261 Z M 89.152344 9 " clip-rule="nonzero"/>
            </clipPath>
            <clipPath id="e3696e4ac6">
                <path d="M 58.679688 9 L 90.179688 9 L 90.179688 261 L 58.679688 261 Z M 58.679688 9 " clip-rule="nonzero"/>
            </clipPath>
            <clipPath id="24017acf03">
                <path d="M 28.859375 14.4375 L 58.859375 14.4375 L 58.859375 261 L 28.859375 261 Z M 28.859375 14.4375 " clip-rule="nonzero"/>
            </clipPath>
        </defs>
        <g clip-path="url(#3a28ff3cd7)">
            <path fill="#0201fc" d="M 218.8125 217.195312 C 209.554688 248.582031 183.5625 271.152344 151.667969 254.792969 C 135.058594 246.296875 118.507812 236.21875 102.660156 224.933594 C 82.8125 210.792969 64.238281 194.816406 48.320312 177.507812 C 36.910156 165.078125 27.398438 149.671875 29.046875 133.695312 C 31.457031 110.617188 49.652344 93.625 66.074219 79.296875 C 77.742188 69.152344 114.261719 42.078125 120.09375 38.019531 C 139.496094 24.578125 161.558594 7.269531 186.605469 10.058594 C 209.238281 12.53125 230.605469 28.003906 239.164062 49.367188 C 247.914062 71.242188 224.140625 199 218.75 217.195312 Z M 218.8125 217.195312 " fill-opacity="1" fill-rule="nonzero"/></g><g clip-path="url(#139ce22daa)"><path fill="#fc0100" d="M 218.554688 217.195312 C 209.296875 248.582031 183.300781 271.152344 151.410156 254.792969 C 134.796875 246.296875 118.25 236.21875 102.398438 224.933594 C 82.554688 210.792969 63.976562 194.816406 48.0625 177.507812 C 36.648438 165.078125 27.140625 149.671875 28.789062 133.695312 C 31.195312 110.617188 49.394531 93.625 65.816406 79.296875 C 77.480469 69.152344 114 42.078125 119.835938 38.019531 C 139.234375 24.578125 161.300781 7.269531 186.34375 10.058594 C 208.980469 12.53125 230.347656 28.003906 238.90625 49.367188 C 247.65625 71.242188 223.878906 199 218.488281 217.195312 Z M 218.554688 217.195312 " fill-opacity="1" fill-rule="nonzero"/></g><g clip-path="url(#c7c871e298)"><path fill="#fb03fa" d="M 217.484375 217.195312 C 208.226562 248.582031 182.230469 271.152344 150.339844 254.792969 C 133.726562 246.296875 117.179688 236.21875 101.328125 224.933594 C 81.484375 210.792969 62.90625 194.816406 46.992188 177.507812 C 35.582031 165.078125 26.070312 149.671875 27.71875 133.695312 C 30.128906 110.617188 48.324219 93.625 64.746094 79.296875 C 76.410156 69.152344 112.933594 42.078125 118.765625 38.019531 C 138.167969 24.578125 160.230469 7.269531 185.273438 10.058594 C 207.910156 12.53125 229.277344 28.003906 237.835938 49.367188 C 246.585938 71.242188 222.808594 199 217.421875 217.195312 Z M 217.484375 217.195312 " fill-opacity="1" fill-rule="nonzero"/></g><g clip-path="url(#3c0b2e1214)"><path fill="#01fd02" d="M 217.742188 217.195312 C 208.488281 248.582031 182.492188 271.152344 150.601562 254.792969 C 133.988281 246.296875 117.441406 236.21875 101.589844 224.933594 C 81.746094 210.792969 63.167969 194.816406 47.253906 177.507812 C 35.839844 165.078125 26.328125 149.671875 27.976562 133.695312 C 30.386719 110.617188 48.585938 93.625 65.003906 79.296875 C 76.671875 69.152344 113.191406 42.078125 119.023438 38.019531 C 138.425781 24.578125 160.492188 7.269531 185.535156 10.058594 C 208.167969 12.53125 229.535156 28.003906 238.097656 49.367188 C 246.847656 71.242188 223.070312 199 217.679688 217.195312 Z M 217.742188 217.195312 " fill-opacity="1" fill-rule="nonzero"/></g><g clip-path="url(#905f38b23a)"><path fill="#01fcfb" d="M 217.742188 217.195312 C 208.488281 248.582031 182.492188 271.152344 150.601562 254.792969 C 133.988281 246.296875 117.441406 236.21875 101.589844 224.933594 C 81.746094 210.792969 63.167969 194.816406 47.253906 177.507812 C 35.839844 165.078125 26.328125 149.671875 27.976562 133.695312 C 30.386719 110.617188 48.585938 93.625 65.003906 79.296875 C 76.671875 69.152344 113.191406 42.078125 119.023438 38.019531 C 138.425781 24.578125 160.492188 7.269531 185.535156 10.058594 C 208.167969 12.53125 229.535156 28.003906 238.097656 49.367188 C 246.847656 71.242188 223.070312 199 217.679688 217.195312 Z M 217.742188 217.195312 " fill-opacity="1" fill-rule="nonzero"/></g><g clip-path="url(#e3696e4ac6)"><path fill="#feff03" d="M 218.011719 217.195312 C 208.753906 248.582031 182.757812 271.152344 150.867188 254.792969 C 134.253906 246.296875 117.707031 236.21875 101.855469 224.933594 C 82.011719 210.792969 63.433594 194.816406 47.519531 177.507812 C 36.109375 165.078125 26.597656 149.671875 28.246094 133.695312 C 30.65625 110.617188 48.851562 93.625 65.273438 79.296875 C 76.9375 69.152344 113.460938 42.078125 119.292969 38.019531 C 138.695312 24.578125 160.757812 7.269531 185.800781 10.058594 C 208.4375 12.53125 229.804688 28.003906 238.363281 49.367188 C 247.113281 71.242188 223.335938 199 217.949219 217.195312 Z M 218.011719 217.195312 " fill-opacity="1" fill-rule="nonzero"/></g><g clip-path="url(#24017acf03)"><path fill="#d7d7d7" d="M 218.8125 217.195312 C 209.554688 248.582031 183.5625 271.152344 151.667969 254.792969 C 135.058594 246.296875 118.507812 236.21875 102.660156 224.933594 C 82.8125 210.792969 64.238281 194.816406 48.320312 177.507812 C 36.910156 165.078125 27.398438 149.671875 29.046875 133.695312 C 31.457031 110.617188 49.652344 93.625 66.074219 79.296875 C 77.742188 69.152344 114.261719 42.078125 120.09375 38.019531 C 139.496094 24.578125 161.558594 7.269531 186.605469 10.058594 C 209.238281 12.53125 230.605469 28.003906 239.164062 49.367188 C 247.914062 71.242188 224.140625 199 218.75 217.195312 Z M 218.8125 217.195312 " fill-opacity="1" fill-rule="nonzero"/>
        </g>
    </symbol>
</svg>