<svg id="frappe-symbols" aria-hidden="true" style="position: absolute; width: 0; height: 0; overflow: hidden;" class="d-block" xmlns="http://www.w3.org/2000/svg">
	<symbol id="icon-hvac" viewBox="0 0 16 16" xmlns="http://www.w3.org/2000/svg">
        <defs>
        <clipPath id="aa">
        <path d="M162 13.54h58V72h-58Zm0 0"/>
        </clipPath>
        <clipPath id="ab">
        <path d="M104 72h253v298.54H104Zm0 0"/>
        </clipPath>
        <clipPath id="ac">
        <path d="M27 72h152v298.54H27Zm0 0"/>
        </clipPath>
        </defs>
        <g clip-path="url(#aa)">
        <path fill="#00545c" d="M218.645 44c-12.747 3.617-22.477 13.344-26.024 26.234-.45 1.586-2.562 1.586-3.016 0-3.542-12.89-13.199-22.617-26.02-26.234-1.585-.453-1.585-2.566 0-3.016 12.747-3.62 22.477-13.347 26.02-26.238.454-1.586 2.567-1.586 3.016 0 3.547 12.89 13.2 22.617 26.024 26.238a1.551 1.551 0 0 1 0 3.016Zm0 0"/>
        </g>
        <g clip-path="url(#ab)">
        <path fill="#00545c" d="M330.27 319.344c-11.012 37.32-41.934 64.164-79.872 44.71-19.761-10.1-39.449-22.09-58.304-35.511-23.606-16.813-45.707-35.813-64.637-56.395-13.578-14.78-24.89-33.101-22.93-52.023 2.868-27.445 24.512-47.652 44.047-64.691 13.88-12.063 57.324-44.258 64.262-49.082 23.078-15.985 49.328-36.645 79.121-33.325 26.926 2.938 52.344 21.336 62.523 46.743 10.41 26.011-17.875 177.937-24.285 199.574Zm0 0"/>
        </g>
        <g clip-path="url(#ac)">
        <path fill="#00545c" d="M175.578 330.578c3.168 2.414 3.016 7.238-.305 9.426a482.406 482.406 0 0 1-41.406 24.05c-37.937 19.454-68.863-7.39-79.875-44.71-6.41-21.637-34.691-173.563-24.285-199.574 10.184-25.407 35.602-43.805 62.527-46.743 24.512-2.715 67.204 25.106 83.645 36.489 3.242 2.265 3.316 6.937.152 9.351-13.05 9.727-24.437 18.926-34.773 27.973-22.477 19.527-44.727 41.242-47.969 72.152-2.035 19.602 6.715 40.11 25.945 61.07 16.368 17.793 35.45 34.91 56.418 50.668Zm0 0"/>
        </g>
    </symbol>
</svg>