<svg id="frappe-symbols" aria-hidden="true" style="position: absolute; width: 0; height: 0; overflow: hidden;" class="d-block" xmlns="http://www.w3.org/2000/svg">
    <symbol id="icon-raio" viewBox="0 0 16 16" xmlns="http://www.w3.org/2000/svg">
        <defs>
            <clipPath id="520e044f64">
                <path d="M 28.863281 12 L 234.027344 12 L 234.027344 255 L 28.863281 255 Z M 28.863281 12 " clip-rule="nonzero"/>
            </clipPath>
        </defs>
        <g clip-path="url(#520e044f64)">
            <path fill="#f00f00" d="M 165.613281 13.449219 C 153.351562 16.074219 140.515625 22.878906 119.660156 37.8125 C 95.742188 54.9375 72.195312 73.058594 60.933594 82.988281 C 46.816406 95.425781 38.996094 104.855469 33.792969 115.683594 C 25.304688 133.359375 27.550781 149.175781 41.09375 167.167969 C 49.265625 178.027344 69.546875 197.398438 87.066406 211.074219 C 110.050781 229.027344 146.273438 250.796875 158.046875 253.742188 C 163.195312 255.019531 170.929688 255.179688 175.996094 254.101562 C 193.640625 250.34375 208.296875 232.65625 214.09375 208.140625 C 218.480469 189.628906 225.359375 151.609375 229.027344 125.632812 C 233.0625 97.066406 233.984375 86.765625 234.027344 69.769531 L 234.070312 53.753906 L 230.890625 47.351562 C 218.714844 22.847656 190.398438 8.144531 165.613281 13.449219 M 142.53125 87.6875 C 133.980469 90.738281 110.503906 107.566406 100.164062 118.054688 C 91.992188 126.34375 89.871094 134.535156 93.847656 142.496094 C 96.253906 147.324219 106.667969 157.769531 116.132812 164.851562 C 124.175781 170.863281 136.128906 178.199219 140.199219 179.617188 C 148.941406 182.664062 156.953125 178.453125 161.511719 168.4375 C 164.859375 161.0625 170.496094 127.476562 171.027344 111.683594 L 171.367188 101.714844 L 168.664062 97.703125 C 164.054688 90.84375 156.6875 86.734375 149.070312 86.800781 C 146.800781 86.808594 143.855469 87.210938 142.53125 87.6875 " fill-opacity="1" fill-rule="evenodd"/>
        </g>
    </symbol>
</svg>