<svg id="frappe-symbols" aria-hidden="true" style="position: absolute; width: 0; height: 0; overflow: hidden;" class="d-block" xmlns="http://www.w3.org/2000/svg">
    <symbol id="icon-tv" viewBox="0 0 16 16" xmlns="http://www.w3.org/2000/svg">
        <defs><clipPath id="b37cba4f9d"><path d="M 58.304688 88.566406 L 59.234375 88.566406 L 59.234375 98.367188 L 58.304688 98.367188 Z M 58.304688 88.566406 " clip-rule="nonzero"/></clipPath><clipPath id="ec834ffdcf"><path d="M 56.984375 88.566406 L 58.296875 88.566406 L 58.296875 98.367188 L 56.984375 98.367188 Z M 56.984375 88.566406 " clip-rule="nonzero"/></clipPath><clipPath id="9a520b6a18"><path d="M 55.671875 88.566406 L 56.984375 88.566406 L 56.984375 98.367188 L 55.671875 98.367188 Z M 55.671875 88.566406 " clip-rule="nonzero"/></clipPath><clipPath id="a8e4032f43"><path d="M 54.476562 88.566406 L 55.789062 88.566406 L 55.789062 98.367188 L 54.476562 98.367188 Z M 54.476562 88.566406 " clip-rule="nonzero"/></clipPath><clipPath id="42646b4675"><path d="M 53.324219 88.566406 L 54.636719 88.566406 L 54.636719 98.367188 L 53.324219 98.367188 Z M 53.324219 88.566406 " clip-rule="nonzero"/></clipPath><clipPath id="1444135100"><path d="M 52.136719 88.566406 L 53.363281 88.566406 L 53.363281 98.367188 L 52.136719 98.367188 Z M 52.136719 88.566406 " clip-rule="nonzero"/></clipPath><clipPath id="bfe8eb88c2"><path d="M 50.980469 88.777344 L 52.144531 88.777344 L 52.144531 98.367188 L 50.980469 98.367188 Z M 50.980469 88.777344 " clip-rule="nonzero"/></clipPath></defs><g clip-path="url(#b37cba4f9d)"><path fill="#0201fc" d="M 58.367188 96.664062 C 58.003906 97.886719 56.996094 98.761719 55.753906 98.125 C 55.109375 97.796875 54.464844 97.402344 53.847656 96.964844 C 53.078125 96.414062 52.355469 95.792969 51.734375 95.121094 C 51.292969 94.636719 50.921875 94.039062 50.984375 93.417969 C 51.078125 92.519531 51.789062 91.859375 52.425781 91.300781 C 52.878906 90.90625 54.300781 89.855469 54.527344 89.695312 C 55.28125 89.171875 56.140625 88.5 57.113281 88.609375 C 57.992188 88.707031 58.824219 89.308594 59.15625 90.136719 C 59.496094 90.988281 58.574219 95.957031 58.363281 96.664062 Z M 58.367188 96.664062 " fill-opacity="1" fill-rule="nonzero"/></g><g clip-path="url(#ec834ffdcf)"><path fill="#fc0100" d="M 58.355469 96.664062 C 57.996094 97.886719 56.984375 98.761719 55.746094 98.125 C 55.097656 97.796875 54.453125 97.402344 53.839844 96.964844 C 53.066406 96.414062 52.34375 95.792969 51.726562 95.121094 C 51.28125 94.636719 50.910156 94.039062 50.976562 93.417969 C 51.070312 92.519531 51.777344 91.859375 52.414062 91.300781 C 52.871094 90.90625 54.289062 89.855469 54.515625 89.695312 C 55.269531 89.171875 56.128906 88.5 57.101562 88.609375 C 57.984375 88.707031 58.8125 89.308594 59.148438 90.136719 C 59.488281 90.988281 58.5625 95.957031 58.351562 96.664062 Z M 58.355469 96.664062 " fill-opacity="1" fill-rule="nonzero"/></g><g clip-path="url(#9a520b6a18)"><path fill="#fb03fa" d="M 58.3125 96.664062 C 57.953125 97.886719 56.941406 98.761719 55.703125 98.125 C 55.058594 97.796875 54.414062 97.402344 53.796875 96.964844 C 53.023438 96.414062 52.304688 95.792969 51.683594 95.121094 C 51.238281 94.636719 50.871094 94.039062 50.933594 93.417969 C 51.027344 92.519531 51.734375 91.859375 52.375 91.300781 C 52.828125 90.90625 54.25 89.855469 54.476562 89.695312 C 55.230469 89.171875 56.085938 88.5 57.0625 88.609375 C 57.941406 88.707031 58.773438 89.308594 59.105469 90.136719 C 59.445312 90.988281 58.519531 95.957031 58.3125 96.664062 Z M 58.3125 96.664062 " fill-opacity="1" fill-rule="nonzero"/></g><g clip-path="url(#a8e4032f43)"><path fill="#01fd02" d="M 58.324219 96.664062 C 57.964844 97.886719 56.953125 98.761719 55.714844 98.125 C 55.066406 97.796875 54.421875 97.402344 53.808594 96.964844 C 53.035156 96.414062 52.3125 95.792969 51.695312 95.121094 C 51.25 94.636719 50.878906 94.039062 50.945312 93.417969 C 51.039062 92.519531 51.746094 91.859375 52.382812 91.300781 C 52.839844 90.90625 54.257812 89.855469 54.484375 89.695312 C 55.238281 89.171875 56.097656 88.5 57.070312 88.609375 C 57.953125 88.707031 58.78125 89.308594 59.117188 90.136719 C 59.457031 90.988281 58.53125 95.957031 58.320312 96.664062 Z M 58.324219 96.664062 " fill-opacity="1" fill-rule="nonzero"/></g><g clip-path="url(#42646b4675)"><path fill="#01fcfb" d="M 58.324219 96.664062 C 57.964844 97.886719 56.953125 98.761719 55.714844 98.125 C 55.066406 97.796875 54.421875 97.402344 53.808594 96.964844 C 53.035156 96.414062 52.3125 95.792969 51.695312 95.121094 C 51.25 94.636719 50.878906 94.039062 50.945312 93.417969 C 51.039062 92.519531 51.746094 91.859375 52.382812 91.300781 C 52.839844 90.90625 54.257812 89.855469 54.484375 89.695312 C 55.238281 89.171875 56.097656 88.5 57.070312 88.609375 C 57.953125 88.707031 58.78125 89.308594 59.117188 90.136719 C 59.457031 90.988281 58.53125 95.957031 58.320312 96.664062 Z M 58.324219 96.664062 " fill-opacity="1" fill-rule="nonzero"/></g><g clip-path="url(#1444135100)"><path fill="#feff03" d="M 58.335938 96.664062 C 57.976562 97.886719 56.964844 98.761719 55.722656 98.125 C 55.078125 97.796875 54.433594 97.402344 53.816406 96.964844 C 53.046875 96.414062 52.324219 95.792969 51.703125 95.121094 C 51.261719 94.636719 50.890625 94.039062 50.953125 93.417969 C 51.046875 92.519531 51.757812 91.859375 52.394531 91.300781 C 52.847656 90.90625 54.269531 89.855469 54.496094 89.695312 C 55.25 89.171875 56.109375 88.5 57.082031 88.609375 C 57.960938 88.707031 58.792969 89.308594 59.125 90.136719 C 59.464844 90.988281 58.542969 95.957031 58.332031 96.664062 Z M 58.335938 96.664062 " fill-opacity="1" fill-rule="nonzero"/></g><g clip-path="url(#bfe8eb88c2)"><path fill="#d7d7d7" d="M 58.367188 96.664062 C 58.003906 97.886719 56.996094 98.761719 55.753906 98.125 C 55.109375 97.796875 54.464844 97.402344 53.847656 96.964844 C 53.078125 96.414062 52.355469 95.792969 51.734375 95.121094 C 51.292969 94.636719 50.921875 94.039062 50.984375 93.417969 C 51.078125 92.519531 51.789062 91.859375 52.425781 91.300781 C 52.878906 90.90625 54.300781 89.855469 54.527344 89.695312 C 55.28125 89.171875 56.140625 88.5 57.113281 88.609375 C 57.992188 88.707031 58.824219 89.308594 59.15625 90.136719 C 59.496094 90.988281 58.574219 95.957031 58.363281 96.664062 Z M 58.367188 96.664062 " fill-opacity="1" fill-rule="nonzero"/></g>
    </symbol>
</svg>