<svg id="frappe-symbols" aria-hidden="true" style="position: absolute; width: 0; height: 0; overflow: hidden;" class="d-block" xmlns="http://www.w3.org/2000/svg">
	<symbol id="icon-mirage" viewBox="0 0 16 16" xmlns="http://www.w3.org/2000/svg">
	    	<path fill="#00545c" d="M 6.511719 1.003906 C 6.089844 1.125 5.765625 1.445312 5.648438 1.871094 C 5.632812 1.921875 5.566406 1.921875 5.550781 1.871094 C 5.433594 1.445312 5.113281 1.125 4.6875 1.003906 C 4.636719 0.988281 4.636719 0.917969 4.6875 0.90625 C 5.109375 0.785156 5.433594 0.464844 5.550781 0.0390625 C 5.566406 -0.0117188 5.632812 -0.0117188 5.648438 0.0390625 C 5.765625 0.464844 6.085938 0.785156 6.511719 0.90625 C 6.5625 0.917969 6.5625 0.988281 6.511719 1.003906 Z M 6.511719 1.003906 " fill-opacity="1" fill-rule="nonzero"/>
	        <g clip-path="url(#0f68411a93)">
	            <path fill="#00545c" d="M 10.203125 10.082031 C 9.839844 11.3125 8.816406 12.195312 7.5625 11.554688 C 6.90625 11.222656 6.257812 10.828125 5.632812 10.382812 C 4.851562 9.832031 4.121094 9.203125 3.492188 8.527344 C 3.046875 8.039062 2.671875 7.433594 2.734375 6.808594 C 2.832031 5.90625 3.546875 5.238281 4.191406 4.679688 C 4.652344 4.28125 6.089844 3.21875 6.316406 3.058594 C 7.082031 2.53125 7.949219 1.851562 8.9375 1.960938 C 9.828125 2.058594 10.667969 2.664062 11.003906 3.503906 C 11.347656 4.359375 10.414062 9.367188 10.199219 10.082031 Z M 10.203125 10.082031 " fill-opacity="1" fill-rule="nonzero"/>
	        </g>
	        <g clip-path="url(#f79d230eac)">
	            <path fill="#00545c" d="M 5.085938 10.453125 C 5.191406 10.53125 5.1875 10.691406 5.074219 10.761719 C 4.625 11.054688 4.164062 11.320312 3.707031 11.554688 C 2.449219 12.195312 1.429688 11.3125 1.0625 10.082031 C 0.851562 9.367188 -0.0820312 4.359375 0.261719 3.503906 C 0.597656 2.664062 1.4375 2.058594 2.328125 1.960938 C 3.140625 1.871094 4.550781 2.789062 5.097656 3.164062 C 5.203125 3.238281 5.207031 3.394531 5.101562 3.472656 C 4.667969 3.792969 4.292969 4.097656 3.949219 4.394531 C 3.207031 5.039062 2.472656 5.753906 2.363281 6.773438 C 2.296875 7.417969 2.585938 8.09375 3.222656 8.785156 C 3.761719 9.375 4.394531 9.9375 5.089844 10.457031 Z M 5.085938 10.453125 " fill-opacity="1" fill-rule="nonzero"/>
	        </g>
	</symbol>
</svg>
